<svg xmlns="http://www.w3.org/2000/svg" viewBox="0 0 32 32" width="32" height="32" fill="none">
  <defs>
    <linearGradient id="brainGrad" x1="0%" y1="0%" x2="100%" y2="100%">
      <stop offset="0%" style="stop-color:#4FC3F7;stop-opacity:1" />
      <stop offset="100%" style="stop-color:#29B6F6;stop-opacity:1" />
    </linearGradient>
  </defs>
  <circle cx="16" cy="16" r="14" fill="#1E1E1E" stroke="url(#brainGrad)" stroke-width="1.5"/>
  <g stroke="url(#brainGrad)" stroke-width="1.2" fill="none">
    <path d="M10 12c0-2 1-4 4-4s4 2 4 4-2 3-4 3-4 1-4 3 1 4 4 4 4-2 4-4"/>
    <path d="M12 14c1-1 2-2 4-2"/>
    <path d="M12 18c1 1 2 2 4 2"/>
  </g>
  <circle cx="13" cy="13" r="1.5" fill="#4FC3F7"/>
  <circle cx="19" cy="13" r="1.5" fill="#4FC3F7"/>
  <circle cx="16" cy="19" r="1.5" fill="#4FC3F7"/>
</svg>
